<svg xmlns="http://www.w3.org/2000/svg" width="780" height="430" viewBox="0 0 780 430" font-family="-apple-system,Segoe UI,Helvetica,Arial,sans-serif"><rect width="780" height="430" fill="#ffffff" rx="6"/><text x="30" y="24" font-size="15" font-weight="600" fill="#1f2328">What Gusset's coordination costs, against how much work a call does</text><text x="30" y="42" font-size="11.5" fill="#57606a">Gusset ÷ one blocking cgo call, same Rust loop on both sides. Lower is better; 1× is break-even.</text><line x1="78.0" y1="378.0" x2="746.0" y2="378.0" stroke="#d8dee4" stroke-width="1" stroke-dasharray="3 3"/><text x="70.0" y="382.0" font-size="11" text-anchor="end" fill="#57606a">0.5×</text><line x1="78.0" y1="353.3" x2="746.0" y2="353.3" stroke="#8250df" stroke-width="1" stroke-dasharray="6 4"/><text x="70.0" y="357.3" font-size="11" text-anchor="end" fill="#8250df">1×</text><line x1="78.0" y1="271.3" x2="746.0" y2="271.3" stroke="#d8dee4" stroke-width="1" stroke-dasharray="3 3"/><text x="70.0" y="275.3" font-size="11" text-anchor="end" fill="#57606a">10×</text><line x1="78.0" y1="189.3" x2="746.0" y2="189.3" stroke="#d8dee4" stroke-width="1" stroke-dasharray="3 3"/><text x="70.0" y="193.3" font-size="11" text-anchor="end" fill="#57606a">100×</text><line x1="78.0" y1="107.4" x2="746.0" y2="107.4" stroke="#d8dee4" stroke-width="1" stroke-dasharray="3 3"/><text x="70.0" y="111.4" font-size="11" text-anchor="end" fill="#57606a">1000×</text><line x1="78.0" y1="378.0" x2="746.0" y2="378.0" stroke="#57606a" stroke-width="1.3"/><line x1="78.0" y1="378.0" x2="78.0" y2="58.0" stroke="#57606a" stroke-width="1.3"/><text x="412.0" y="422" font-size="11.5" text-anchor="middle" fill="#57606a">work per call</text><text transform="translate(16,218.0) rotate(-90)" font-size="11.5" text-anchor="middle" fill="#57606a">Gusset ÷ blocking cgo</text><line x1="78.0" y1="378.0" x2="78.0" y2="383.0" stroke="#d8dee4" stroke-width="1"/><text x="78.0" y="397.0" font-size="11" text-anchor="middle" fill="#57606a">noop</text><line x1="245.0" y1="378.0" x2="245.0" y2="383.0" stroke="#d8dee4" stroke-width="1"/><text x="245.0" y="397.0" font-size="11" text-anchor="middle" fill="#57606a">663 ns</text><line x1="412.0" y1="378.0" x2="412.0" y2="383.0" stroke="#d8dee4" stroke-width="1"/><text x="412.0" y="397.0" font-size="11" text-anchor="middle" fill="#57606a">6 µs</text><line x1="579.0" y1="378.0" x2="579.0" y2="383.0" stroke="#d8dee4" stroke-width="1"/><text x="579.0" y="397.0" font-size="11" text-anchor="middle" fill="#57606a">66 µs</text><text x="579.0" y="337.2" font-size="10.5" text-anchor="middle" fill="#bc4c00">1.15×</text><text x="579.0" y="356.5" font-size="10.5" text-anchor="middle" fill="#1a7f37">1.56×</text><line x1="746.0" y1="378.0" x2="746.0" y2="383.0" stroke="#d8dee4" stroke-width="1"/><text x="746.0" y="397.0" font-size="11" text-anchor="middle" fill="#57606a">660 µs</text><text x="746.0" y="342.0" font-size="10.5" text-anchor="middle" fill="#bc4c00">+1%</text><text x="746.0" y="373.0" font-size="10.5" text-anchor="middle" fill="#1a7f37">−2%</text><path d="M78.0 114.1 L245.0 249.0 L412.0 318.0 L579.0 348.2 L746.0 353.0" fill="none" stroke="#bc4c00" stroke-width="2.4" stroke-linejoin="round"/><circle cx="78.0" cy="114.1" r="3.6" fill="#bc4c00"/><circle cx="245.0" cy="249.0" r="3.6" fill="#bc4c00"/><circle cx="412.0" cy="318.0" r="3.6" fill="#bc4c00"/><circle cx="579.0" cy="348.2" r="3.6" fill="#bc4c00"/><circle cx="746.0" cy="353.0" r="3.6" fill="#bc4c00"/><path d="M78.0 72.3 L245.0 193.1 L412.0 271.4 L579.0 337.5 L746.0 354.0" fill="none" stroke="#1a7f37" stroke-width="2.4" stroke-linejoin="round"/><circle cx="78.0" cy="72.3" r="3.6" fill="#1a7f37"/><circle cx="245.0" cy="193.1" r="3.6" fill="#1a7f37"/><circle cx="412.0" cy="271.4" r="3.6" fill="#1a7f37"/><circle cx="579.0" cy="337.5" r="3.6" fill="#1a7f37"/><circle cx="746.0" cy="354.0" r="3.6" fill="#1a7f37"/><rect x="607.8" y="64.0" width="128.2" height="46.0" fill="#ffffff" fill-opacity="0.92" stroke="#d8dee4" rx="4"/><line x1="614.8" y1="77.0" x2="628.8" y2="77.0" stroke="#bc4c00" stroke-width="2.6"/><text x="634.8" y="81.0" font-size="11.5" fill="#1f2328">one call at a time</text><line x1="614.8" y1="95.0" x2="628.8" y2="95.0" stroke="#1a7f37" stroke-width="2.6"/><text x="634.8" y="99.0" font-size="11.5" fill="#1f2328">all cores busy</text><text x="88.0" y="368.1" font-size="11" fill="#8250df">Gusset faster below this line</text></svg>