<svg xmlns="http://www.w3.org/2000/svg" width="880" height="400" viewBox="0 0 880 400" font-family="-apple-system,Segoe UI,Helvetica,Arial,sans-serif"><rect width="880" height="400" fill="#ffffff" rx="6"/><text x="30" y="24" font-size="15" font-weight="600" fill="#1f2328">Peak OS threads with 512 calls in flight</text><text x="30" y="42" font-size="11.5" fill="#57606a">ThreadPressure: 512 concurrent calls, one 10M-iteration Rust loop each. A single run per bar, so a gap of a few threads is not resolved.</text><line x1="78.0" y1="348.0" x2="846.0" y2="348.0" stroke="#d8dee4" stroke-width="1" stroke-dasharray="3 3"/><text x="70.0" y="352.0" font-size="11" text-anchor="end" fill="#57606a">0</text><line x1="78.0" y1="251.3" x2="846.0" y2="251.3" stroke="#d8dee4" stroke-width="1" stroke-dasharray="3 3"/><text x="70.0" y="255.3" font-size="11" text-anchor="end" fill="#57606a">50</text><line x1="78.0" y1="154.7" x2="846.0" y2="154.7" stroke="#d8dee4" stroke-width="1" stroke-dasharray="3 3"/><text x="70.0" y="158.7" font-size="11" text-anchor="end" fill="#57606a">100</text><line x1="78.0" y1="58.0" x2="846.0" y2="58.0" stroke="#d8dee4" stroke-width="1" stroke-dasharray="3 3"/><text x="70.0" y="62.0" font-size="11" text-anchor="end" fill="#57606a">150</text><line x1="78.0" y1="348.0" x2="846.0" y2="348.0" stroke="#57606a" stroke-width="1.3"/><line x1="78.0" y1="348.0" x2="78.0" y2="58.0" stroke="#57606a" stroke-width="1.3"/><text x="462.0" y="392" font-size="11.5" text-anchor="middle" fill="#57606a"></text><text transform="translate(16,203.0) rotate(-90)" font-size="11.5" text-anchor="middle" fill="#57606a">peak OS threads</text><text x="807.6" y="24" font-size="11.5" fill="#1f2328">Gusset</text><rect x="790.6" y="15" width="11" height="11" fill="#0969da" rx="2"/><text x="685.0" y="24" font-size="11.5" fill="#1f2328">Gusset, before</text><rect x="668.0" y="15" width="11" height="11" fill="#8c959f" rx="2"/><text x="575.2" y="24" font-size="11.5" fill="#1f2328">blocking cgo</text><rect x="558.2" y="15" width="11" height="11" fill="#cf222e" rx="2"/><text x="270.0" y="367.0" font-size="11" text-anchor="middle" fill="#57606a">darwin arm64, 18 cores</text><rect x="187.0" y="110.2" width="54.0" height="237.8" fill="#cf222e" rx="2"/><text x="214.0" y="105.2" font-size="10.5" text-anchor="middle" fill="#1f2328">123</text><rect x="299.0" y="309.3" width="54.0" height="38.7" fill="#0969da" rx="2"/><text x="326.0" y="304.3" font-size="10.5" text-anchor="middle" fill="#1f2328">20</text><text x="654.0" y="367.0" font-size="11" text-anchor="middle" fill="#57606a">linux amd64 VM, 4 vCPU</text><rect x="571.0" y="268.7" width="54.0" height="79.3" fill="#cf222e" rx="2"/><text x="598.0" y="263.7" font-size="10.5" text-anchor="middle" fill="#1f2328">41</text><rect x="627.0" y="334.5" width="54.0" height="13.5" fill="#8c959f" rx="2"/><text x="654.0" y="329.5" font-size="10.5" text-anchor="middle" fill="#1f2328">7</text><rect x="683.0" y="328.7" width="54.0" height="19.3" fill="#0969da" rx="2"/><text x="710.0" y="323.7" font-size="10.5" text-anchor="middle" fill="#1f2328">10</text></svg>